<svg width="67" height="65" viewBox="0 0 67 65" fill="#dbdbdb" xmlns="http://www.w3.org/2000/svg">
<path fill-rule="evenodd" clip-rule="evenodd" d="M56.5586 8.71245H3.5847V37.4535H20.6412V41.0733H13.3066V55.5527H9.63935V41.0733H3.5847V41.0737H8.24467e-05V45.2833H3.5847V60.7083H56.5586V8.71245ZM0 5.02771V64.393H60.1433V5.02771H0ZM24.2759 22.1676H13.274V14.9279H9.60675V33.0271H13.274V25.7875H24.2759V33.0271H24.2831L24.3051 38.5479H24.3084V55.5527H42.6448V44.6932H27.9757V37.4535H27.9293V33.0271H27.9431V14.9279H24.2759V22.1676ZM35.296 22.1495V18.6021H46.2612V22.1495H35.296ZM35.296 33.0271V25.9322H46.2612V33.0271H49.9468V14.9279H31.6104V33.0271H35.296ZM49.9794 37.4535H46.3121V55.5527H49.9794V37.4535ZM27.9757 51.9329V48.313H38.9776V51.9329H27.9757Z" fill="#dbdbdb"/>
<path d="M60.1433 0.285526V0H62.7936V0.285526H61.6353V3.4807H61.3016V0.285526H60.1433Z" fill="#dbdbdb"/>
<path d="M63.5449 0H63.9304L65.2564 3.03202H65.2885L66.6145 0H67V3.4807H66.6859V0.671327H66.6574L65.4242 3.4807H65.1208L63.8876 0.671327H63.859V3.4807H63.5449V0Z" fill="#dbdbdb"/>
</svg>
